<?xml version="1.0" encoding="utf-8"?>
<svg version="1.2" baseProfile="tiny" xmlns="http://www.w3.org/2000/svg" xmlns:xlink="http://www.w3.org/1999/xlink" x="0px" y="0px" width="600px" height="360px" viewBox="0 0 600 360" xml:space="preserve">
<circle fill="#2B606B" cx="24.5" cy="27" r="7"/>
<circle fill="#49838E" cx="53.5" cy="27" r="20"/>
<circle fill="#76C7D7" cx="82.5" cy="27" r="8"/>
<circle fill="#49838E" cx="111.5" cy="27" r="15"/>
<circle fill="#49838E" cx="140.5" cy="27" r="15"/>
<circle fill="#49838E" cx="169.5" cy="27" r="19"/>
<circle fill="#2B606B" cx="198.5" cy="27" r="20"/>
<circle fill="#49838E" cx="227.5" cy="27" r="8"/>
<circle fill="#49838E" cx="256.5" cy="27" r="12"/>
<circle fill="#49838E" cx="285.5" cy="27" r="13"/>
<circle fill="#A5ECFA" cx="314.5" cy="27" r="11"/>
<circle fill="#76C7D7" cx="343.5" cy="27" r="9"/>
<circle fill="#49838E" cx="372.5" cy="27" r="18"/>
<circle fill="#76C7D7" cx="401.5" cy="27" r="5"/>
<circle fill="#76C7D7" cx="430.5" cy="27" r="17"/>
<circle fill="#2B606B" cx="459.5" cy="27" r="14"/>
<circle fill="#76C7D7" cx="488.5" cy="27" r="16"/>
<circle fill="#D9F9FF" cx="517.5" cy="27" r="8"/>
<circle fill="#F2F2F2" cx="546.5" cy="27" r="13"/>
<circle fill="#D9F9FF" cx="575.5" cy="27" r="11"/>
<circle fill="#49838E" cx="24.5" cy="61" r="9"/>
<circle fill="#F2F2F2" cx="53.5" cy="61" r="6"/>
<circle fill="#F2F2F2" cx="82.5" cy="61" r="14"/>
<circle fill="#76C7D7" cx="111.5" cy="61" r="10"/>
<circle fill="#F2F2F2" cx="140.5" cy="61" r="14"/>
<circle fill="#49838E" cx="169.5" cy="61" r="15"/>
<circle fill="#49838E" cx="198.5" cy="61" r="9"/>
<circle fill="#F2F2F2" cx="227.5" cy="61" r="15"/>
<circle fill="#F2F2F2" cx="256.5" cy="61" r="12"/>
<circle fill="#F2F2F2" cx="285.5" cy="61" r="7"/>
<circle fill="#2B606B" cx="314.5" cy="61" r="12"/>
<circle fill="#D9F9FF" cx="343.5" cy="61" r="16"/>
<circle fill="#D9F9FF" cx="372.5" cy="61" r="6"/>
<circle fill="#F2F2F2" cx="401.5" cy="61" r="13"/>
<circle fill="#D9F9FF" cx="430.5" cy="61" r="16"/>
<circle fill="#76C7D7" cx="459.5" cy="61" r="8"/>
<circle fill="#A5ECFA" cx="488.5" cy="61" r="15"/>
<circle fill="#49838E" cx="517.5" cy="61" r="7"/>
<circle fill="#A5ECFA" cx="546.5" cy="61" r="18"/>
<circle fill="#76C7D7" cx="575.5" cy="61" r="18"/>
<circle fill="#A5ECFA" cx="24.5" cy="95" r="16"/>
<circle fill="#2B606B" cx="53.5" cy="95" r="12"/>
<circle fill="#D9F9FF" cx="82.5" cy="95" r="10"/>
<circle fill="#76C7D7" cx="111.5" cy="95" r="17"/>
<circle fill="#F2F2F2" cx="140.5" cy="95" r="13"/>
<circle fill="#D9F9FF" cx="169.5" cy="95" r="10"/>
<circle fill="#2B606B" cx="198.5" cy="95" r="8"/>
<circle fill="#D9F9FF" cx="227.5" cy="95" r="12"/>
<circle fill="#A5ECFA" cx="256.5" cy="95" r="11"/>
<circle fill="#F2F2F2" cx="285.5" cy="95" r="8"/>
<circle fill="#2B606B" cx="314.5" cy="95" r="7"/>
<circle fill="#A5ECFA" cx="343.5" cy="95" r="5"/>
<circle fill="#A5ECFA" cx="372.5" cy="95" r="6"/>
<circle fill="#A5ECFA" cx="401.5" cy="95" r="8"/>
<circle fill="#2B606B" cx="430.5" cy="95" r="13"/>
<circle fill="#A5ECFA" cx="459.5" cy="95" r="6"/>
<circle fill="#F2F2F2" cx="488.5" cy="95" r="18"/>
<circle fill="#A5ECFA" cx="517.5" cy="95" r="5"/>
<circle fill="#2B606B" cx="546.5" cy="95" r="15"/>
<circle fill="#A5ECFA" cx="575.5" cy="95" r="6"/>
<circle fill="#49838E" cx="24.5" cy="129" r="7"/>
<circle fill="#49838E" cx="53.5" cy="129" r="11"/>
<circle fill="#49838E" cx="82.5" cy="129" r="19"/>
<circle fill="#76C7D7" cx="111.5" cy="129" r="16"/>
<circle fill="#49838E" cx="140.5" cy="129" r="10"/>
<circle fill="#49838E" cx="169.5" cy="129" r="5"/>
<circle fill="#A5ECFA" cx="198.5" cy="129" r="12"/>
<circle fill="#2B606B" cx="227.5" cy="129" r="10"/>
<circle fill="#D9F9FF" cx="256.5" cy="129" r="6"/>
<circle fill="#49838E" cx="285.5" cy="129" r="6"/>
<circle fill="#D9F9FF" cx="314.5" cy="129" r="10"/>
<circle fill="#49838E" cx="343.5" cy="129" r="19"/>
<circle fill="#D9F9FF" cx="372.5" cy="129" r="8"/>
<circle fill="#F2F2F2" cx="401.5" cy="129" r="6"/>
<circle fill="#F2F2F2" cx="430.5" cy="129" r="7"/>
<circle fill="#49838E" cx="459.5" cy="129" r="16"/>
<circle fill="#D9F9FF" cx="488.5" cy="129" r="13"/>
<circle fill="#A5ECFA" cx="517.5" cy="129" r="12"/>
<circle fill="#2B606B" cx="546.5" cy="129" r="8"/>
<circle fill="#2B606B" cx="575.5" cy="129" r="14"/>
<circle fill="#D9F9FF" cx="24.5" cy="163" r="12"/>
<circle fill="#49838E" cx="53.5" cy="163" r="17"/>
<circle fill="#49838E" cx="82.5" cy="163" r="12"/>
<circle fill="#76C7D7" cx="111.5" cy="163" r="6"/>
<circle fill="#F2F2F2" cx="140.5" cy="163" r="8"/>
<circle fill="#2B606B" cx="169.5" cy="163" r="11"/>
<circle fill="#2B606B" cx="198.5" cy="163" r="13"/>
<circle fill="#2B606B" cx="227.5" cy="163" r="12"/>
<circle fill="#2B606B" cx="256.5" cy="163" r="17"/>
<circle fill="#2B606B" cx="285.5" cy="163" r="9"/>
<circle fill="#76C7D7" cx="314.5" cy="163" r="10"/>
<circle fill="#76C7D7" cx="343.5" cy="163" r="7"/>
<circle fill="#F2F2F2" cx="372.5" cy="163" r="17"/>
<circle fill="#76C7D7" cx="401.5" cy="163" r="18"/>
<circle fill="#76C7D7" cx="430.5" cy="163" r="6"/>
<circle fill="#76C7D7" cx="459.5" cy="163" r="12"/>
<circle fill="#2B606B" cx="488.5" cy="163" r="12"/>
<circle fill="#A5ECFA" cx="517.5" cy="163" r="12"/>
<circle fill="#49838E" cx="546.5" cy="163" r="14"/>
<circle fill="#D9F9FF" cx="575.5" cy="163" r="20"/>
<circle fill="#2B606B" cx="24.5" cy="197" r="10"/>
<circle fill="#2B606B" cx="53.5" cy="197" r="14"/>
<circle fill="#49838E" cx="82.5" cy="197" r="11"/>
<circle fill="#49838E" cx="111.5" cy="197" r="14"/>
<circle fill="#49838E" cx="140.5" cy="197" r="16"/>
<circle fill="#F2F2F2" cx="169.5" cy="197" r="19"/>
<circle fill="#D9F9FF" cx="198.5" cy="197" r="17"/>
<circle fill="#F2F2F2" cx="227.5" cy="197" r="19"/>
<circle fill="#49838E" cx="256.5" cy="197" r="8"/>
<circle fill="#76C7D7" cx="285.5" cy="197" r="20"/>
<circle fill="#F2F2F2" cx="314.5" cy="197" r="9"/>
<circle fill="#49838E" cx="343.5" cy="197" r="6"/>
<circle fill="#49838E" cx="372.5" cy="197" r="16"/>
<circle fill="#A5ECFA" cx="401.5" cy="197" r="16"/>
<circle fill="#49838E" cx="430.5" cy="197" r="14"/>
<circle fill="#A5ECFA" cx="459.5" cy="197" r="11"/>
<circle fill="#A5ECFA" cx="488.5" cy="197" r="6"/>
<circle fill="#76C7D7" cx="517.5" cy="197" r="18"/>
<circle fill="#D9F9FF" cx="546.5" cy="197" r="15"/>
<circle fill="#2B606B" cx="575.5" cy="197" r="8"/>
<circle fill="#2B606B" cx="24.5" cy="231" r="5"/>
<circle fill="#D9F9FF" cx="53.5" cy="231" r="14"/>
<circle fill="#D9F9FF" cx="82.5" cy="231" r="20"/>
<circle fill="#F2F2F2" cx="111.5" cy="231" r="15"/>
<circle fill="#76C7D7" cx="140.5" cy="231" r="7"/>
<circle fill="#A5ECFA" cx="169.5" cy="231" r="15"/>
<circle fill="#49838E" cx="198.5" cy="231" r="16"/>
<circle fill="#2B606B" cx="227.5" cy="231" r="19"/>
<circle fill="#A5ECFA" cx="256.5" cy="231" r="19"/>
<circle fill="#49838E" cx="285.5" cy="231" r="7"/>
<circle fill="#76C7D7" cx="314.5" cy="231" r="15"/>
<circle fill="#49838E" cx="343.5" cy="231" r="11"/>
<circle fill="#2B606B" cx="372.5" cy="231" r="9"/>
<circle fill="#76C7D7" cx="401.5" cy="231" r="18"/>
<circle fill="#2B606B" cx="430.5" cy="231" r="16"/>
<circle fill="#76C7D7" cx="459.5" cy="231" r="10"/>
<circle fill="#D9F9FF" cx="488.5" cy="231" r="20"/>
<circle fill="#F2F2F2" cx="517.5" cy="231" r="17"/>
<circle fill="#A5ECFA" cx="546.5" cy="231" r="17"/>
<circle fill="#49838E" cx="575.5" cy="231" r="20"/>
<circle fill="#2B606B" cx="24.5" cy="265" r="14"/>
<circle fill="#76C7D7" cx="53.5" cy="265" r="6"/>
<circle fill="#2B606B" cx="82.5" cy="265" r="5"/>
<circle fill="#2B606B" cx="111.5" cy="265" r="15"/>
<circle fill="#A5ECFA" cx="140.5" cy="265" r="8"/>
<circle fill="#D9F9FF" cx="169.5" cy="265" r="10"/>
<circle fill="#49838E" cx="198.5" cy="265" r="20"/>
<circle fill="#F2F2F2" cx="227.5" cy="265" r="18"/>
<circle fill="#F2F2F2" cx="256.5" cy="265" r="19"/>
<circle fill="#2B606B" cx="285.5" cy="265" r="12"/>
<circle fill="#F2F2F2" cx="314.5" cy="265" r="16"/>
<circle fill="#76C7D7" cx="343.5" cy="265" r="15"/>
<circle fill="#D9F9FF" cx="372.5" cy="265" r="10"/>
<circle fill="#76C7D7" cx="401.5" cy="265" r="13"/>
<circle fill="#49838E" cx="430.5" cy="265" r="5"/>
<circle fill="#76C7D7" cx="459.5" cy="265" r="17"/>
<circle fill="#49838E" cx="488.5" cy="265" r="8"/>
<circle fill="#2B606B" cx="517.5" cy="265" r="9"/>
<circle fill="#D9F9FF" cx="546.5" cy="265" r="18"/>
<circle fill="#49838E" cx="575.5" cy="265" r="9"/>
<circle fill="#49838E" cx="24.5" cy="299" r="13"/>
<circle fill="#76C7D7" cx="53.5" cy="299" r="20"/>
<circle fill="#A5ECFA" cx="82.5" cy="299" r="14"/>
<circle fill="#2B606B" cx="111.5" cy="299" r="11"/>
<circle fill="#2B606B" cx="140.5" cy="299" r="20"/>
<circle fill="#A5ECFA" cx="169.5" cy="299" r="14"/>
<circle fill="#A5ECFA" cx="198.5" cy="299" r="6"/>
<circle fill="#49838E" cx="227.5" cy="299" r="17"/>
<circle fill="#D9F9FF" cx="256.5" cy="299" r="6"/>
<circle fill="#2B606B" cx="285.5" cy="299" r="18"/>
<circle fill="#D9F9FF" cx="314.5" cy="299" r="12"/>
<circle fill="#49838E" cx="343.5" cy="299" r="10"/>
<circle fill="#F2F2F2" cx="372.5" cy="299" r="16"/>
<circle fill="#49838E" cx="401.5" cy="299" r="14"/>
<circle fill="#76C7D7" cx="430.5" cy="299" r="8"/>
<circle fill="#49838E" cx="459.5" cy="299" r="10"/>
<circle fill="#2B606B" cx="488.5" cy="299" r="12"/>
<circle fill="#A5ECFA" cx="517.5" cy="299" r="12"/>
<circle fill="#2B606B" cx="546.5" cy="299" r="20"/>
<circle fill="#A5ECFA" cx="575.5" cy="299" r="10"/>
<circle fill="#F2F2F2" cx="24.5" cy="333" r="16"/>
<circle fill="#A5ECFA" cx="53.5" cy="333" r="18"/>
<circle fill="#49838E" cx="82.5" cy="333" r="12"/>
<circle fill="#D9F9FF" cx="111.5" cy="333" r="14"/>
<circle fill="#D9F9FF" cx="140.5" cy="333" r="6"/>
<circle fill="#F2F2F2" cx="169.5" cy="333" r="11"/>
<circle fill="#49838E" cx="198.5" cy="333" r="7"/>
<circle fill="#49838E" cx="227.5" cy="333" r="11"/>
<circle fill="#D9F9FF" cx="256.5" cy="333" r="8"/>
<circle fill="#2B606B" cx="285.5" cy="333" r="16"/>
<circle fill="#F2F2F2" cx="314.5" cy="333" r="12"/>
<circle fill="#76C7D7" cx="343.5" cy="333" r="7"/>
<circle fill="#2B606B" cx="372.5" cy="333" r="7"/>
<circle fill="#2B606B" cx="401.5" cy="333" r="19"/>
<circle fill="#D9F9FF" cx="430.5" cy="333" r="18"/>
<circle fill="#49838E" cx="459.5" cy="333" r="11"/>
<circle fill="#A5ECFA" cx="488.5" cy="333" r="9"/>
<circle fill="#49838E" cx="517.5" cy="333" r="19"/>
<circle fill="#F2F2F2" cx="546.5" cy="333" r="18"/>
<circle fill="#76C7D7" cx="575.5" cy="333" r="11"/>
</svg>
